<?xml version="1.0" encoding="UTF-8" standalone="no"?>
<!-- Uploaded to: SVG Repo, www.svgrepo.com, Generator: SVG Repo Mixer Tools -->

<svg
   width="800px"
   height="800px"
   viewBox="0 0 1024 1024"
   version="1.1"
   id="svg134"
   sodipodi:docname="arrow-left.svg"
   inkscape:version="1.2.1 (9c6d41e, 2022-07-14)"
   xmlns:inkscape="http://www.inkscape.org/namespaces/inkscape"
   xmlns:sodipodi="http://sodipodi.sourceforge.net/DTD/sodipodi-0.dtd"
   xmlns="http://www.w3.org/2000/svg"
   xmlns:svg="http://www.w3.org/2000/svg">
  <defs
     id="defs138" />
  <sodipodi:namedview
     id="namedview136"
     pagecolor="#505050"
     bordercolor="#ffffff"
     borderopacity="1"
     inkscape:showpageshadow="0"
     inkscape:pageopacity="0"
     inkscape:pagecheckerboard="1"
     inkscape:deskcolor="#505050"
     showgrid="false"
     inkscape:zoom="0.59036665"
     inkscape:cx="-154.1415"
     inkscape:cy="485.29164"
     inkscape:window-width="1920"
     inkscape:window-height="1027"
     inkscape:window-x="0"
     inkscape:window-y="25"
     inkscape:window-maximized="1"
     inkscape:current-layer="svg134" />
  <path
     style="color:#000000;fill:#000000;stroke-linecap:round;stroke-miterlimit:10;-inkscape-stroke:none"
     d="m 632.97656,192.09766 a 49.60725,49.60725 0 0 0 -34.0957,16.70507 49.60725,49.60725 0 0 0 4.4082,70.01758 L 810.90234,461.83789 81.671875,460.87695 A 49.60725,49.60725 0 0 0 32,510.41992 49.60725,49.60725 0 0 0 81.541016,560.0918 l 730.013674,0.96289 -208.8711,184.125 a 49.60725,49.60725 0 0 0 -4.4082,70.01758 49.60725,49.60725 0 0 0 70.01758,4.4082 L 974.5918,549.59375 a 49.60725,49.60725 0 0 0 5.00781,-5.16602 49.60725,49.60725 0 0 0 0.006,-0.004 49.60725,49.60725 0 0 0 8.28711,-13.30274 49.60725,49.60725 0 0 0 0.41406,-0.99023 49.60725,49.60725 0 0 0 3.58594,-17.91016 49.60725,49.60725 0 0 0 0.10742,-0.53711 49.60725,49.60725 0 0 0 -0.10156,-1.58789 49.60725,49.60725 0 0 0 -0.20899,-3.24414 49.60725,49.60725 0 0 0 -0.41211,-3.19336 49.60725,49.60725 0 0 0 -0.63281,-3.20312 49.60725,49.60725 0 0 0 -0.82617,-3.11328 49.60725,49.60725 0 0 0 -1.04297,-3.08789 49.60725,49.60725 0 0 0 -1.23047,-2.99219 49.60725,49.60725 0 0 0 -1.42383,-2.89453 49.60725,49.60725 0 0 0 -1.61718,-2.82227 49.60725,49.60725 0 0 0 -1.80274,-2.70508 49.60725,49.60725 0 0 0 -1.95508,-2.56054 49.60725,49.60725 0 0 0 -2.14062,-2.44727 49.60725,49.60725 0 0 0 -2.28516,-2.29687 49.60725,49.60725 0 0 0 -1.12304,-1.12891 L 668.89844,204.39453 a 49.60725,49.60725 0 0 0 -35.92188,-12.29687 z"
     id="path1526" />
</svg>
