<?xml version="1.0" encoding="UTF-8" standalone="no"?>
<svg
   viewBox="0 0 24 24"
   fill="none"
   version="1.1"
   id="svg1"
   sodipodi:docname="checkbox-unchecked.svg"
   inkscape:version="1.3.2 (091e20e, 2023-11-25)"
   xmlns:inkscape="http://www.inkscape.org/namespaces/inkscape"
   xmlns:sodipodi="http://sodipodi.sourceforge.net/DTD/sodipodi-0.dtd"
   xmlns="http://www.w3.org/2000/svg"
   xmlns:svg="http://www.w3.org/2000/svg">
  <defs
     id="defs1" />
  <sodipodi:namedview
     id="namedview1"
     pagecolor="#ffffff"
     bordercolor="#000000"
     borderopacity="0.25"
     inkscape:showpageshadow="2"
     inkscape:pageopacity="0.0"
     inkscape:pagecheckerboard="0"
     inkscape:deskcolor="#d1d1d1"
     inkscape:zoom="34.375"
     inkscape:cx="12"
     inkscape:cy="12"
     inkscape:window-width="1920"
     inkscape:window-height="1023"
     inkscape:window-x="0"
     inkscape:window-y="0"
     inkscape:window-maximized="1"
     inkscape:current-layer="svg1" />
  <g
     id="SVGRepo_bgCarrier"
     stroke-width="0" />
  <g
     id="SVGRepo_tracerCarrier"
     stroke-linecap="round"
     stroke-linejoin="round" />
  <g
     id="SVGRepo_iconCarrier"
     transform="matrix(1.3329861,0,0,1.3329861,-3.9958318,-3.9958318)">
    <g
       id="Interface / Checkbox_Unchecked">
      <path
         style="color:#000000;fill:#000000;stroke-linecap:round;stroke-linejoin:round;-inkscape-stroke:none"
         d="M 7.2011719,3 C 6.081063,3 5.3812748,2.9477884 4.6386719,3.3261719 4.0744161,3.61366 3.61366,4.0744161 3.3261719,4.6386719 2.9477884,5.3812748 3,6.081063 3,7.2011719 v 9.5996091 c 0,1.120099 -0.052038,1.81832 0.3261719,2.560547 0.2873085,0.563859 0.7474774,1.024681 1.3125,1.3125 C 5.3807951,21.052009 6.0793467,21 7.1972656,21 h 9.6054684 c 1.117899,0 1.816915,0.05178 2.558594,-0.326172 0.564306,-0.287477 1.024542,-0.747248 1.3125,-1.3125 C 21.051783,18.619649 21,17.920633 21,16.802734 V 7.1972656 C 21,6.0793467 21.052009,5.3807951 20.673828,4.6386719 20.38569,4.0730226 19.924867,3.6133177 19.361328,3.3261719 18.619382,2.9481054 17.92088,3 16.800781,3 Z m 0,2 h 9.5996091 c 1.120099,0 1.538691,0.051462 1.652344,0.109375 0.18906,0.096334 0.342238,0.2485369 0.4375,0.4355469 C 18.948044,5.6575978 19,6.0793467 19,7.1972656 v 9.6054684 c 0,1.117899 -0.05173,1.537271 -0.109375,1.650391 -0.09544,0.187347 -0.249207,0.341577 -0.4375,0.4375 C 18.340005,18.94827 17.920633,19 16.802734,19 H 7.1972656 C 6.0793467,19 5.6575978,18.948044 5.5449219,18.890625 5.3572853,18.795044 5.2055461,18.641866 5.109375,18.453125 5.051605,18.339753 5,17.92088 5,16.800781 V 7.2011719 C 5,6.081063 5.0517789,5.6579581 5.109375,5.5449219 5.2053665,5.3565184 5.3565184,5.2053665 5.5449219,5.109375 5.6579581,5.0517789 6.081063,5 7.2011719,5 Z"
         id="Vector" />
    </g>
  </g>
</svg>
