<?xml version="1.0" encoding="UTF-8" standalone="no"?>
<svg
   viewBox="0 0 24 24"
   fill="none"
   version="1.1"
   id="svg1"
   sodipodi:docname="checkbox-checked.svg"
   inkscape:version="1.3.2 (091e20e, 2023-11-25)"
   xmlns:inkscape="http://www.inkscape.org/namespaces/inkscape"
   xmlns:sodipodi="http://sodipodi.sourceforge.net/DTD/sodipodi-0.dtd"
   xmlns="http://www.w3.org/2000/svg"
   xmlns:svg="http://www.w3.org/2000/svg">
  <defs
     id="defs1" />
  <sodipodi:namedview
     id="namedview1"
     pagecolor="#ffffff"
     bordercolor="#000000"
     borderopacity="0.25"
     inkscape:showpageshadow="2"
     inkscape:pageopacity="0.0"
     inkscape:pagecheckerboard="0"
     inkscape:deskcolor="#d1d1d1"
     inkscape:zoom="17.1875"
     inkscape:cx="8.8145454"
     inkscape:cy="12.014545"
     inkscape:window-width="1920"
     inkscape:window-height="1023"
     inkscape:window-x="0"
     inkscape:window-y="0"
     inkscape:window-maximized="1"
     inkscape:current-layer="SVGRepo_iconCarrier" />
  <g
     id="SVGRepo_bgCarrier"
     stroke-width="0" />
  <g
     id="SVGRepo_tracerCarrier"
     stroke-linecap="round"
     stroke-linejoin="round" />
  <g
     id="SVGRepo_iconCarrier">
    <g
       id="Interface / Checkbox_Check"
       transform="matrix(1.3329861,0,0,1.3329861,-3.9958318,-3.9958318)">
      <path
         style="color:#000000;fill:#000000;stroke-linecap:round;stroke-linejoin:round;-inkscape-stroke:none"
         d="M 7.2011719,3 C 6.081063,3 5.3812781,2.9477867 4.6386719,3.3261719 4.0744141,3.613661 3.613661,4.0744141 3.3261719,4.6386719 2.9477867,5.3812781 3,6.081063 3,7.2011719 v 9.5996091 c 0,1.120099 -0.052039,1.818317 0.3261719,2.560547 0.2873095,0.56386 0.7474754,1.02468 1.3125,1.3125 C 5.3807984,21.052011 6.0793467,21 7.1972656,21 h 9.6054684 c 1.117899,0 1.816912,0.05178 2.558594,-0.326172 0.564308,-0.287478 1.024541,-0.747246 1.3125,-1.3125 C 21.051784,18.619646 21,17.920633 21,16.802734 V 7.1972656 C 21,6.0793467 21.052011,5.3807984 20.673828,4.6386719 20.385689,4.0730206 19.924869,3.6133187 19.361328,3.3261719 18.619379,2.9481037 17.92088,3 16.800781,3 Z m 0,2 h 9.5996091 c 1.120099,0 1.538694,0.051464 1.652344,0.109375 0.189058,0.096333 0.342239,0.2485389 0.4375,0.4355469 C 18.948042,5.6575945 19,6.0793467 19,7.1972656 v 9.6054684 c 0,1.117899 -0.05173,1.537274 -0.109375,1.650391 -0.09544,0.187345 -0.249209,0.341578 -0.4375,0.4375 C 18.340008,18.948269 17.920633,19 16.802734,19 H 7.1972656 C 6.0793467,19 5.6575945,18.948042 5.5449219,18.890625 5.3572872,18.795045 5.2055451,18.641864 5.109375,18.453125 5.0516067,18.339756 5,17.92088 5,16.800781 V 7.2011719 C 5,6.081063 5.0517806,5.6579548 5.109375,5.5449219 5.2053655,5.3565204 5.3565204,5.2053655 5.5449219,5.109375 5.6579548,5.0517806 6.081063,5 7.2011719,5 Z M 15.910156,8.0039063 A 1.0000104,1.0000104 0 0 0 15.232422,8.359375 l -4.298828,5.160156 -2.2265627,-2.226562 a 1.0000104,1.0000104 0 0 0 -1.4140626,0 1.0000104,1.0000104 0 0 0 0,1.414062 l 3.0000003,3 a 1.0001104,1.0001104 0 0 0 1.474609,-0.06641 l 5,-6 A 1.0000104,1.0000104 0 0 0 16.640625,8.2324219 1.0000104,1.0000104 0 0 0 15.910156,8.0039063 Z"
         id="Vector" />
    </g>
  </g>
</svg>
