<?xml version="1.0" encoding="UTF-8" standalone="no"?>
<svg
   fill="#000000"
   viewBox="0 0 16 16"
   version="1.1"
   id="svg141"
   sodipodi:docname="exclamation-triangle.svg"
   inkscape:version="1.2.1 (9c6d41e, 2022-07-14)"
   xmlns:inkscape="http://www.inkscape.org/namespaces/inkscape"
   xmlns:sodipodi="http://sodipodi.sourceforge.net/DTD/sodipodi-0.dtd"
   xmlns="http://www.w3.org/2000/svg"
   xmlns:svg="http://www.w3.org/2000/svg">
  <defs
     id="defs145" />
  <sodipodi:namedview
     id="namedview143"
     pagecolor="#505050"
     bordercolor="#ffffff"
     borderopacity="1"
     inkscape:showpageshadow="0"
     inkscape:pageopacity="0"
     inkscape:pagecheckerboard="1"
     inkscape:deskcolor="#505050"
     showgrid="false"
     inkscape:zoom="24.871653"
     inkscape:cx="-1.0051604"
     inkscape:cy="-1.9902176"
     inkscape:window-width="1390"
     inkscape:window-height="1027"
     inkscape:window-x="0"
     inkscape:window-y="38"
     inkscape:window-maximized="0"
     inkscape:current-layer="svg141" />
  <g
     id="SVGRepo_bgCarrier"
     stroke-width="0" />
  <g
     id="SVGRepo_tracerCarrier"
     stroke-linecap="round"
     stroke-linejoin="round" />
  <path
     style="color:#000000;fill:#000000;stroke-linecap:round;stroke-linejoin:round;stroke-miterlimit:10;-inkscape-stroke:none;paint-order:stroke fill markers"
     d="M 8,1 A 1.0001,1.0001 0 0 0 7.1289062,1.5078125 L 0.62890625,13.007813 A 1.0001,1.0001 0 0 0 1.5,14.5 h 13 a 1.0001,1.0001 0 0 0 0.871094,-1.492187 L 8.8710938,1.5078125 A 1.0001,1.0001 0 0 0 8,1 Z M 8,4.0332031 12.785156,12.5 H 3.2148438 Z"
     id="path1491" />
  <path
     style="color:#000000;fill:#000000;stroke-linecap:round;stroke-linejoin:round;stroke-miterlimit:10;-inkscape-stroke:none;paint-order:stroke fill markers"
     d="m 8,5.5 a 1,1 0 0 0 -1,1 V 9 A 1,1 0 0 0 8,10 1,1 0 0 0 9,9 V 6.5 a 1,1 0 0 0 -1,-1 z"
     id="path2310" />
  <path
     style="color:#000000;fill:#000000;stroke-linecap:round;stroke-linejoin:round;stroke-miterlimit:10;-inkscape-stroke:none;paint-order:stroke fill markers"
     d="m 8,10.25 a 1,1 0 0 0 -1,1 1,1 0 0 0 1,1 1,1 0 0 0 1,-1 1,1 0 0 0 -1,-1 z"
     id="path2314" />
</svg>
