<?xml version="1.0" encoding="UTF-8" standalone="no"?>
<svg
   viewBox="0 0 20 20"
   fill="none"
   version="1.1"
   id="svg1"
   sodipodi:docname="file-plus.svg"
   inkscape:version="1.3.2 (091e20e, 2023-11-25)"
   xmlns:inkscape="http://www.inkscape.org/namespaces/inkscape"
   xmlns:sodipodi="http://sodipodi.sourceforge.net/DTD/sodipodi-0.dtd"
   xmlns="http://www.w3.org/2000/svg"
   xmlns:svg="http://www.w3.org/2000/svg">
  <defs
     id="defs1" />
  <sodipodi:namedview
     id="namedview1"
     pagecolor="#ffffff"
     bordercolor="#000000"
     borderopacity="0.25"
     inkscape:showpageshadow="2"
     inkscape:pageopacity="0.0"
     inkscape:pagecheckerboard="0"
     inkscape:deskcolor="#d1d1d1"
     inkscape:zoom="41.25"
     inkscape:cx="10"
     inkscape:cy="10"
     inkscape:window-width="1920"
     inkscape:window-height="1023"
     inkscape:window-x="0"
     inkscape:window-y="0"
     inkscape:window-maximized="1"
     inkscape:current-layer="SVGRepo_iconCarrier" />
  <g
     id="SVGRepo_bgCarrier"
     stroke-width="0" />
  <g
     id="SVGRepo_tracerCarrier"
     stroke-linecap="round"
     stroke-linejoin="round" />
  <g
     id="SVGRepo_iconCarrier">
    <path
       fill="#000000"
       fill-rule="evenodd"
       d="M 2,3 C 2,1.8954305 2.8954305,1 4,1 h 7.586 C 12.11639,1.0001133 12.625015,1.2109013 13,1.586 L 17.414,6 C 17.789099,6.3749855 17.999887,6.8836104 18,7.414 V 17 c 0,1.104569 -0.895431,2 -2,2 H 4 C 2.8954305,19 2,18.104569 2,17 Z m 9.586,0 H 4 V 17 H 16 V 7.414 Z M 9,9.5 V 7 c 0,-1.3333328 2,-1.3333328 2,0 v 2.5 h 2.5 c 1.333333,0 1.333333,2 0,2 H 11 V 14 c 0,1.333333 -2,1.333333 -2,0 V 11.5 H 6.5 c -1.3333328,0 -1.3333328,-2 0,-2 z"
       id="path1"
       sodipodi:nodetypes="ssccccssssscccccccsscsscsscssc" />
  </g>
</svg>
