<?xml version="1.0" encoding="UTF-8" standalone="no"?>
<svg
   viewBox="0 0 24 24"
   fill="none"
   version="1.1"
   id="svg1"
   sodipodi:docname="folder-plus.svg"
   inkscape:version="1.3.2 (091e20e, 2023-11-25)"
   xmlns:inkscape="http://www.inkscape.org/namespaces/inkscape"
   xmlns:sodipodi="http://sodipodi.sourceforge.net/DTD/sodipodi-0.dtd"
   xmlns="http://www.w3.org/2000/svg"
   xmlns:svg="http://www.w3.org/2000/svg">
  <defs
     id="defs1" />
  <sodipodi:namedview
     id="namedview1"
     pagecolor="#ffffff"
     bordercolor="#000000"
     borderopacity="0.25"
     inkscape:showpageshadow="2"
     inkscape:pageopacity="0.0"
     inkscape:pagecheckerboard="0"
     inkscape:deskcolor="#d1d1d1"
     inkscape:zoom="34.375"
     inkscape:cx="12"
     inkscape:cy="12"
     inkscape:window-width="1920"
     inkscape:window-height="1023"
     inkscape:window-x="0"
     inkscape:window-y="0"
     inkscape:window-maximized="1"
     inkscape:current-layer="SVGRepo_iconCarrier" />
  <g
     id="SVGRepo_bgCarrier"
     stroke-width="0" />
  <g
     id="SVGRepo_tracerCarrier"
     stroke-linecap="round"
     stroke-linejoin="round" />
  <g
     id="SVGRepo_iconCarrier">
    <path
       style="color:#000000;fill:#000000;stroke-linecap:round;stroke-linejoin:round;-inkscape-stroke:none"
       d="m 5.0839844,2.4414063 c -1.3423134,0 -2.1806613,-0.062685 -3.0703125,0.390625 C 1.3373122,3.1766364 0.78796457,3.7279369 0.44335938,4.4042969 -0.00994702,5.2939413 0.05078125,6.1322841 0.05078125,7.4746094 v 9.1074216 c 0,1.342313 -0.06076633,2.180634 0.39257813,3.070313 0.3445927,0.67628 0.89381442,1.225709 1.57031252,1.570312 0.8896513,0.453332 1.7279872,0.392578 3.0703125,0.392578 H 18.984375 c 1.342314,0 2.180627,0.06079 3.070312,-0.392578 0.67642,-0.344591 1.227675,-0.893893 1.572266,-1.570312 0.453368,-0.889685 0.392578,-1.728 0.392578,-3.070313 V 9.8710938 c 0,-1.3423134 0.06076,-2.1806551 -0.392578,-3.0703126 C 23.282349,6.1242829 22.730968,5.5731083 22.054687,5.2285156 21.165009,4.7751712 20.326689,4.8378906 18.984375,4.8378906 h -4.162109 c -0.586252,0 -0.78844,-0.011955 -0.876953,-0.033203 -0.122212,-0.029349 -0.238323,-0.078747 -0.345704,-0.1445313 -0.07762,-0.047575 -0.2281,-0.1812137 -0.642578,-0.5957031 l -0.15039,-0.1484375 v -0.00195 C 12.392073,3.4994836 12.1287,3.2195609 11.722656,2.9707031 11.401014,2.7736568 11.050325,2.6271318 10.683594,2.5390625 10.22037,2.4278647 9.8342738,2.4414063 9.2480469,2.4414063 Z m 0,2.3964843 h 4.1640625 c 0.5862269,0 0.7864861,0.011955 0.8750001,0.033203 0.121623,0.029208 0.238748,0.077277 0.345703,0.1425782 0.07762,0.047575 0.2281,0.1812136 0.642578,0.5957031 l 0.150391,0.1503906 c 0.414567,0.4145786 0.679893,0.6964548 1.085937,0.9453125 0.321641,0.1970459 0.67233,0.3416181 1.039063,0.4296875 0.463223,0.1111979 0.849295,0.099609 1.435547,0.099609 h 4.162109 c 1.342314,0 1.846759,0.061731 1.982422,0.1308594 0.225624,0.1149649 0.408579,0.2979577 0.523437,0.5234375 0.06916,0.1357305 0.13086,0.6401085 0.13086,1.9824219 v 6.7109377 c 0,1.342313 -0.06173,1.846765 -0.13086,1.982422 -0.11487,0.225486 -0.297951,0.408567 -0.523437,0.523437 -0.135656,0.06913 -0.640108,0.13086 -1.982422,0.13086 H 5.0839844 c -1.3423253,0 -1.8466855,-0.06169 -1.9824219,-0.13086 C 2.8760827,18.973033 2.6930898,18.790077 2.578125,18.564453 2.5089968,18.428791 2.4472656,17.924344 2.4472656,16.582031 V 7.4746094 c 0,-1.3423253 0.061693,-1.8466784 0.1308594,-1.9824219 C 2.6930773,5.2665694 2.8759443,5.0837024 3.1015625,4.96875 3.2372991,4.8995872 3.741671,4.8378906 5.0839844,4.8378906 Z m 6.9511716,2.5935 c -0.6625,-4.579e-4 -1.199676,0.5367191 -1.199218,1.1992188 V 12.027344 H 7.4396093 c -0.6625,-4.58e-4 -1.1996771,0.536719 -1.1992187,1.199219 6.211e-4,0.661737 0.5374818,1.197723 1.1992187,1.197265 h 3.3963287 v 3.398539 c 6.21e-4,0.661737 0.537481,1.197723 1.199218,1.197265 0.660975,-6.19e-4 1.196646,-0.53629 1.197266,-1.197265 v -3.398539 h 3.396968 c 0.661738,4.58e-4 1.198598,-0.535528 1.199219,-1.197265 4.59e-4,-0.6625 -0.536718,-1.199677 -1.199219,-1.199219 H 13.232422 V 8.6306094 C 13.23288,7.968872 12.696893,7.4320111 12.035156,7.4313906 Z"
       id="path1"
       sodipodi:nodetypes="sccssccssccssccsscccccccssssccccccssscssccsscsssccsccccccccccccccccc" />
  </g>
</svg>
