<?xml version="1.0" encoding="UTF-8" standalone="no"?>
<svg
   viewBox="0 0 24 24"
   fill="none"
   version="1.1"
   id="svg1"
   sodipodi:docname="looking_glass.svg"
   inkscape:version="1.3.2 (091e20e, 2023-11-25)"
   xmlns:inkscape="http://www.inkscape.org/namespaces/inkscape"
   xmlns:sodipodi="http://sodipodi.sourceforge.net/DTD/sodipodi-0.dtd"
   xmlns="http://www.w3.org/2000/svg"
   xmlns:svg="http://www.w3.org/2000/svg">
  <defs
     id="defs1" />
  <sodipodi:namedview
     id="namedview1"
     pagecolor="#ffffff"
     bordercolor="#000000"
     borderopacity="0.25"
     inkscape:showpageshadow="2"
     inkscape:pageopacity="0.0"
     inkscape:pagecheckerboard="0"
     inkscape:deskcolor="#d1d1d1"
     inkscape:zoom="24.306796"
     inkscape:cx="8.5367073"
     inkscape:cy="9.5652263"
     inkscape:window-width="1920"
     inkscape:window-height="1023"
     inkscape:window-x="0"
     inkscape:window-y="0"
     inkscape:window-maximized="1"
     inkscape:current-layer="svg1" />
  <g
     id="SVGRepo_bgCarrier"
     stroke-width="0" />
  <g
     id="SVGRepo_tracerCarrier"
     stroke-linecap="round"
     stroke-linejoin="round" />
  <g
     id="SVGRepo_iconCarrier"
     transform="matrix(1.0705053,0,0,1.0705053,-0.84606413,-0.84606413)">
    <path
       style="color:#000000;fill:#000000;stroke-linecap:round;stroke-linejoin:round;-inkscape-stroke:none"
       d="m 9.8984375,0.82421875 c -4.9907242,0 -9.07421875,4.08349455 -9.07421875,9.07421875 0,4.9907325 4.08349765,9.0742185 9.07421875,9.0742185 1.8702615,0 3.5147575,-0.709831 4.9628905,-1.689453 l 5.380859,5.388672 a 1.71778,1.71778 0 0 0 2.429688,0 1.71778,1.71778 0 0 0 0,-2.427734 l -5.382813,-5.390625 c 0.976275,-1.446525 1.683594,-3.088312 1.683594,-4.9550785 0,-4.9907211 -4.083486,-9.07421875 -9.0742185,-9.07421875 z m 0,3.43554685 c 3.1340215,0 5.6386715,2.5046607 5.6386715,5.6386719 0,1.5618975 -0.624896,2.9655025 -1.636718,3.9824215 a 1.71778,1.71778 0 0 0 -0.0098,0 1.71778,1.71778 0 0 0 -0.0078,0.01758 c -1.017071,1.012951 -2.421494,1.638671 -3.9843755,1.638671 -3.1340112,0 -5.6386719,-2.50465 -5.6386719,-5.6386715 0,-3.1340081 2.5046638,-5.6386719 5.6386719,-5.6386719 z"
       id="path1" />
  </g>
</svg>
