<?xml version="1.0" encoding="UTF-8" standalone="no"?>
<svg
   viewBox="0 -0.5 25 25"
   fill="none"
   version="1.1"
   id="svg137"
   sodipodi:docname="pencil.svg"
   inkscape:version="1.2.1 (9c6d41e, 2022-07-14)"
   xmlns:inkscape="http://www.inkscape.org/namespaces/inkscape"
   xmlns:sodipodi="http://sodipodi.sourceforge.net/DTD/sodipodi-0.dtd"
   xmlns="http://www.w3.org/2000/svg"
   xmlns:svg="http://www.w3.org/2000/svg">
  <defs
     id="defs141" />
  <sodipodi:namedview
     id="namedview139"
     pagecolor="#505050"
     bordercolor="#ffffff"
     borderopacity="1"
     inkscape:showpageshadow="0"
     inkscape:pageopacity="0"
     inkscape:pagecheckerboard="1"
     inkscape:deskcolor="#505050"
     showgrid="false"
     inkscape:zoom="15.066553"
     inkscape:cx="14.336392"
     inkscape:cy="4.347378"
     inkscape:window-width="1390"
     inkscape:window-height="1027"
     inkscape:window-x="0"
     inkscape:window-y="25"
     inkscape:window-maximized="0"
     inkscape:current-layer="svg137" />
  <g
     id="SVGRepo_bgCarrier"
     stroke-width="0" />
  <g
     id="SVGRepo_tracerCarrier"
     stroke-linecap="round"
     stroke-linejoin="round" />
  <g
     id="SVGRepo_iconCarrier"
     transform="matrix(1.334492,0,0,1.334492,-3.9144944,-3.6782222)">
    <path
       d="M 13.2942,7.95881 C 13.5533,7.63559 13.5013,7.16358 13.178,6.90453 12.8548,6.64549 12.3828,6.6975 12.1238,7.02072 Z M 6.811,14.8488 7.37903,15.3385 c 0.00586,-0.0068 0.01159,-0.0137 0.0172,-0.0207 z M 6.64,15.2668 5.89146,15.2179 5.8908,15.2321 Z M 6.5,18.2898 5.7508,18.2551 c -0.00172,0.0372 -6.7e-4,0.0745 0.00316,0.1116 z m 0.787,0.687 0.02452,0.7496 c 0.05002,-0.0017 0.09974,-0.0083 0.14844,-0.0199 z m 3,-0.711 0.173,0.7298 0.0116,-0.0029 z m 0.385,-0.244 0.5786,0.4773 0.0065,-0.0081 z M 17.2971,10.959 C 17.5562,10.6358 17.5043,10.1638 17.1812,9.90466 16.8581,9.64552 16.386,9.69742 16.1269,10.0206 Z M 12.1269,7.02052 c -0.2591,0.32313 -0.2073,0.79516 0.1159,1.05432 0.3231,0.25915 0.7951,0.20729 1.0543,-0.11583 z M 14.3,5.50976 14.8851,5.97901 c 0.0098,-0.01229 0.0193,-0.02489 0.0284,-0.03778 z m 1.629,-0.32 0.4798,-0.57644 C 16.3849,4.59344 16.3598,4.57507 16.3337,4.5583 Z m 2.237,1.862 0.5308,-0.52984 C 18.6805,6.50561 18.6635,6.49007 18.6458,6.47532 Z m 0.3369,0.82088 0.75,0.00412 v 0 z M 18.157,8.68976 17.632,8.15412 c -0.0212,0.02084 -0.0412,0.04292 -0.0599,0.06613 z m -2.0299,1.33054 c -0.2593,0.323 -0.2076,0.795 0.1154,1.0543 0.323,0.2593 0.7951,0.2077 1.0544,-0.1153 z M 13.4537,7.37862 C 13.3923,6.96898 13.0105,6.68666 12.6009,6.74805 12.1912,6.80943 11.9089,7.19127 11.9703,7.60091 Z m 3.3593,3.85428 c 0.4104,-0.0557 0.6979,-0.4337 0.6422,-0.8441 C 17.3994,9.97834 17.0215,9.69082 16.611,9.74659 Z M 12.1238,7.02072 6.22577,14.3797 7.39623,15.3178 13.2942,7.95881 Z M 6.24297,14.359 c -0.20736,0.2405 -0.33071,0.5421 -0.35138,0.859 l 1.49682,0.0976 c -5.5e-4,0.0084 -0.00384,0.0165 -0.00938,0.0229 z m -0.35217,0.8731 -0.14,3.023 1.4984,0.0694 0.14,-3.023 z m -0.13684,3.1346 c 0.08167,0.7919 0.76192,1.3857 1.55756,1.3597 L 7.26248,18.2272 c -0.0032,10e-5 -0.00477,-4e-4 -0.00579,-8e-4 C 7.25526,18.2259 7.25337,18.2249 7.25144,18.2232 7.2495,18.2215 7.24825,18.2198 7.24754,18.2185 7.24703,18.2175 7.24637,18.216 7.24604,18.2128 Z m 1.706,1.3398 3.00004,-0.711 -0.346,-1.4595 -2.99996,0.711 z m 3.01164,-0.7138 c 0.3055,-0.0776 0.5784,-0.2505 0.779,-0.4937 l -1.1572,-0.9545 c 0.0024,-0.0028 0.0055,-0.0048 0.009,-0.0057 z m 0.7855,-0.5017 6.04,-7.532 -1.1702,-0.9384 -6.04,7.532 z m 2.04,-10.53199 1.588,-1.98 -1.1702,-0.93849 -1.588,1.98 z m 1.6164,-2.01778 c 0.1386,-0.19712 0.4079,-0.25003 0.6108,-0.12 L 16.3337,4.5583 c -0.8793,-0.56346 -2.0464,-0.3342 -2.6472,0.52 z m 0.5357,-0.17503 2.237,1.862 0.9596,-1.15288 -2.237,-1.862 z m 2.186,1.81541 c 0.0759,0.07609 0.1183,0.17939 0.1177,0.28691 l 1.5,0.00824 C 19.2557,7.36905 19.0555,6.88127 18.6968,6.52192 Z m 0.1177,0.28691 c -5e-4,0.10752 -0.0441,0.21034 -0.1209,0.2856 l 1.05,1.07129 c 0.3626,-0.35539 0.5681,-0.84094 0.5709,-1.34865 z m -0.1808,0.35173 -1.445,1.80005 1.1698,0.939 1.445,-1.80002 z M 11.9703,7.60091 c 0.3493,2.3313 2.5068,3.94939 4.8427,3.63199 L 16.611,9.74659 C 15.0881,9.95352 13.6815,8.89855 13.4537,7.37862 Z"
       fill="#000000"
       id="path134" />
  </g>
</svg>
