<?xml version="1.0" encoding="UTF-8" standalone="no"?>
<svg
   viewBox="0 0 24 24"
   fill="none"
   version="1.1"
   id="svg1"
   sodipodi:docname="wrench.svg"
   inkscape:version="1.3.2 (091e20e, 2023-11-25)"
   xmlns:inkscape="http://www.inkscape.org/namespaces/inkscape"
   xmlns:sodipodi="http://sodipodi.sourceforge.net/DTD/sodipodi-0.dtd"
   xmlns="http://www.w3.org/2000/svg"
   xmlns:svg="http://www.w3.org/2000/svg">
  <defs
     id="defs1" />
  <sodipodi:namedview
     id="namedview1"
     pagecolor="#ffffff"
     bordercolor="#000000"
     borderopacity="0.25"
     inkscape:showpageshadow="2"
     inkscape:pageopacity="0.0"
     inkscape:pagecheckerboard="0"
     inkscape:deskcolor="#d1d1d1"
     inkscape:zoom="34.375"
     inkscape:cx="12"
     inkscape:cy="12"
     inkscape:window-width="1920"
     inkscape:window-height="1023"
     inkscape:window-x="0"
     inkscape:window-y="0"
     inkscape:window-maximized="1"
     inkscape:current-layer="svg1" />
  <g
     id="SVGRepo_bgCarrier"
     stroke-width="0" />
  <g
     id="SVGRepo_tracerCarrier"
     stroke-linecap="round"
     stroke-linejoin="round" />
  <g
     id="SVGRepo_iconCarrier"
     transform="matrix(1.1904283,0,0,1.1904283,-2.4658566,-2.5695182)">
    <path
       fill-rule="evenodd"
       clip-rule="evenodd"
       d="M 3.5362,5.29854 C 3.861,5.23721 4.19511,5.34035 4.42884,5.57407 L 6.90007,8.0453 c 0.31711,0.31711 0.83124,0.31711 1.14835,0 0.31711,-0.3171 0.31711,-0.83124 0,-1.14835 L 5.57841,4.42694 C 5.34457,4.1931 5.24146,3.85877 5.30297,3.53383 5.36449,3.2089 5.58266,2.93539 5.8858,2.8032 c 2.18116,-0.95114 4.8176,-0.53622 6.6045,1.25064 1.4138,1.41381 1.9685,3.36027 1.6678,5.19035 l 6.8785,6.87851 c 1.357,1.3569 1.357,3.557 0,4.914 -1.357,1.3569 -3.557,1.3569 -4.914,0 L 9.24405,14.1581 C 7.41401,14.4588 5.46762,13.904 4.05384,12.4903 2.26556,10.702 1.85139,8.06276 2.80548,5.88058 2.93789,5.57772 3.2114,5.35986 3.5362,5.29854 Z M 4.30644,8.2801 c 0.00214,1.01273 0.38988,2.0242 1.16161,2.7959 1.03883,1.0389 2.51122,1.3821 3.8389,1.0249 0.34535,-0.0929 0.71405,0.0057 0.96695,0.2586 l 7.2629,7.263 c 0.5759,0.5759 1.5097,0.5759 2.0856,0 0.5759,-0.5759 0.5759,-1.5097 0,-2.0856 L 12.3595,10.274 C 12.1066,10.0211 12.008,9.65241 12.1009,9.30705 12.4582,7.97934 12.1149,6.50691 11.076,5.46805 10.3059,4.69791 9.29699,4.31018 8.28635,4.30645 l 1.17629,1.17629 c 1.09816,1.09815 1.09816,2.87862 0,3.97678 -1.09816,1.09818 -2.87863,1.09818 -3.97678,0 z"
       fill="#000000"
       id="path1" />
  </g>
</svg>
