<?xml version="1.0" encoding="UTF-8" standalone="no"?>
<svg
   fill="#ffffff"
   viewBox="-2.56 -2.56 37.12 37.12"
   version="1.1"
   stroke="#ffffff"
   stroke-width="0.00032"
   id="svg2"
   sodipodi:docname="favicon_has_changes.svg"
   inkscape:version="1.3.2 (091e20e, 2023-11-25)"
   xmlns:inkscape="http://www.inkscape.org/namespaces/inkscape"
   xmlns:sodipodi="http://sodipodi.sourceforge.net/DTD/sodipodi-0.dtd"
   xmlns="http://www.w3.org/2000/svg"
   xmlns:svg="http://www.w3.org/2000/svg">
  <defs
     id="defs2" />
  <sodipodi:namedview
     id="namedview2"
     pagecolor="#ffffff"
     bordercolor="#000000"
     borderopacity="0.25"
     inkscape:showpageshadow="2"
     inkscape:pageopacity="0.0"
     inkscape:pagecheckerboard="0"
     inkscape:deskcolor="#d1d1d1"
     showgrid="false"
     inkscape:zoom="22.225216"
     inkscape:cx="18.559999"
     inkscape:cy="18.559999"
     inkscape:window-width="1920"
     inkscape:window-height="1023"
     inkscape:window-x="0"
     inkscape:window-y="0"
     inkscape:window-maximized="1"
     inkscape:current-layer="svg2" />
  <g
     id="SVGRepo_bgCarrier"
     stroke-width="0" />
  <g
     id="SVGRepo_tracerCarrier"
     stroke-linecap="round"
     stroke-linejoin="round"
     stroke="#888888"
     stroke-width="6.4"
     transform="translate(-0.04204176,-0.04204176)"
     style="stroke:#000000;stroke-opacity:1">
    <title
       id="title1">anvil</title>
    <path
       d="m 26.375,14.833 c 1.548,-0.494 3.096,-1.594 4.644,-3.19 C 29.47,10.019 27.956,9.219 26.375,8.918 V 6.655 H 7.501 V 8.298 H 1.146 c 1.146,3.109 3.659,5.252 6.355,5.985 v 2.68 h 4.97 C 11.608,19.894 9.819,22.3 7.632,24.382 H 5.754 v 1.644 c -0.008,0.007 -0.016,0.013 -0.024,0.02 h 0.024 v 2.223 H 29.259 V 24.383 H 26.76 c -2.444,-2.08 -4.177,-4.484 -4.984,-7.419 h 4.599 z"
       id="path1"
       style="stroke:#000000;stroke-opacity:1" />
  </g>
  <g
     id="SVGRepo_iconCarrier"
     style="fill:#fc7600;fill-opacity:1">
    <title
       id="title2">anvil</title>
    <path
       d="M26.375 14.833c1.548-0.494 3.096-1.594 4.644-3.19-1.549-1.624-3.063-2.424-4.644-2.725v-2.263h-18.874v1.643h-6.355c1.146 3.109 3.659 5.252 6.355 5.985v2.68h4.97c-0.863 2.931-2.652 5.337-4.839 7.419h-1.878v1.644c-0.008 0.007-0.016 0.013-0.024 0.020h0.024v2.223h23.505v-3.886h-2.499c-2.444-2.080-4.177-4.484-4.984-7.419h4.599v-2.131z"
       id="path2"
       style="fill:#fc7600;fill-opacity:1" />
  </g>
  <rect
     style="fill:#000000;fill-opacity:1;stroke:#d0582c;stroke-width:0;stroke-dasharray:none;stroke-opacity:1"
     id="rect3"
     width="2.5361707"
     height="12.562374"
     x="15.44"
     y="8.4839325" />
  <circle
     style="fill:#000000;fill-opacity:1;stroke:#d0582c;stroke-width:0;stroke-dasharray:none;stroke-opacity:1"
     id="path3"
     cx="16.760834"
     cy="24.605148"
     r="1.3208332" />
</svg>
